<svg xmlns="http://www.w3.org/2000/svg" viewBox="-3 -3 30 30"><path fill="rgba(0,0,0,0.7)" fill-rule="evenodd" d="M12 2C6.477 2 2 6.477 2 12s4.477 10 10 10 10-4.477 10-10S17.523 2 12 2ZM0 12C0 5.373 5.373 0 12 0s12 5.373 12 12-5.373 12-12 12S0 18.627 0 12Z" clip-rule="evenodd"/><path fill="rgba(0,0,0,0.7)" fill-rule="evenodd" d="M9.592 22.736c-.097-.125-.097-1.237 0-3.337-1.036.036-1.69-.036-1.964-.216-.41-.27-.82-1.1-1.183-1.685-.364-.585-1.172-.678-1.498-.809-.326-.13-.408-.664.899-.26 1.306.403 1.37 1.501 1.782 1.758.412.257 1.398.145 1.844-.061.447-.206.414-.972.494-1.276.1-.283-.254-.346-.262-.348-.436 0-2.727-.498-3.356-2.717-.63-2.218.181-3.668.613-4.291.289-.416.263-1.301-.076-2.657 1.232-.158 2.182.23 2.852 1.163 0 .005.877-.521 2.263-.521s1.878.429 2.257.521c.38.092.683-1.633 3.026-1.163-.489.961-.899 2.163-.586 2.657.313.493 1.54 2.063.786 4.291-.502 1.486-1.49 2.391-2.964 2.717-.169.054-.253.14-.253.26 0 .18.228.2.557 1.044.22.562.236 2.168.048 4.817-.476.121-.846.203-1.11.244-.469.074-.977.115-1.478.131-.5.016-.673.014-1.364-.05a9.9 9.9 0 0 1-1.327-.212Z" clip-rule="evenodd"/></svg>